<svg width="32" height="32" viewBox="0 0 32 32" fill="none" xmlns="http://www.w3.org/2000/svg">
<rect width="32" height="32" rx="4" fill="#1A65A8"/>
<g clip-path="url(#clip0_189_121)">
<path d="M16.003 4.43457C17.849 4.43521 19.6699 4.86167 21.3242 5.68078C22.9784 6.49989 24.4214 7.68957 25.541 9.15728C26.6605 10.625 27.4264 12.3312 27.779 14.1431C28.1316 15.9551 28.0615 17.824 27.5741 19.6044C27.0867 21.3849 26.1952 23.0289 24.9688 24.4086C23.7425 25.7883 22.2144 26.8665 20.5034 27.5594C18.7924 28.2523 16.9447 28.5411 15.1039 28.4035C13.2631 28.2658 11.4788 27.7054 9.88992 26.7657L4.98895 28.3979C4.85691 28.4417 4.71529 28.4479 4.57992 28.4158C4.44455 28.3838 4.32077 28.3147 4.2224 28.2163C4.12403 28.118 4.05495 27.9942 4.02289 27.8588C3.99084 27.7234 3.99705 27.5818 4.04086 27.4498L5.67451 22.5503C4.59539 20.7278 4.0178 18.6522 4.00041 16.5343C3.98301 14.4164 4.52642 12.3316 5.57545 10.4916C6.62448 8.65167 8.14177 7.1221 9.97321 6.05827C11.8047 4.99444 13.885 4.43424 16.003 4.43457ZM11.8236 10.4412C11.671 10.4463 11.5213 10.4846 11.385 10.5536C11.2487 10.6225 11.1291 10.7203 11.0345 10.8402C10.7645 11.1567 10.0024 11.9278 10.0024 13.4909C10.0024 15.0571 11.06 16.5722 11.2085 16.7853C11.3556 16.9923 13.2907 20.2056 16.2535 21.5857C16.8036 21.8407 17.3636 22.0638 17.9337 22.2548C18.6418 22.4948 19.2868 22.4633 19.7969 22.3823C20.3654 22.2923 21.543 21.6127 21.7906 20.8672C22.0351 20.1276 22.0351 19.49 21.9601 19.3565C21.8866 19.2245 21.6901 19.1435 21.393 18.9815C21.099 18.824 19.6454 18.0544 19.3753 17.9509C19.1053 17.8414 18.9073 17.7919 18.7108 18.1084C18.5128 18.4279 17.9502 19.145 17.7762 19.3565C17.6067 19.565 17.4311 19.595 17.1386 19.436C16.8416 19.2785 15.892 18.941 14.7624 17.8549C13.8848 17.0133 13.2922 15.9677 13.1212 15.6512C12.9472 15.3316 13.1017 15.1621 13.2487 15.0016C13.3838 14.8606 13.5458 14.6326 13.6928 14.445C13.8383 14.262 13.8908 14.13 13.9898 13.9155C14.0858 13.704 14.0363 13.5164 13.9628 13.3589C13.8893 13.2014 13.2982 11.6308 13.0522 10.9932C12.8122 10.3736 12.5677 10.4607 12.3877 10.4487C12.2166 10.4411 12.0201 10.4412 11.8236 10.4412Z" fill="white"/>
</g>
<defs>
<clipPath id="clip0_189_121">
<rect width="24" height="24" fill="white" transform="translate(4 4)"/>
</clipPath>
</defs>
</svg>
