<svg width="32" height="32" viewBox="0 0 32 32" fill="none" xmlns="http://www.w3.org/2000/svg">
<rect width="32" height="32" rx="4" fill="#1A65A8"/>
<path d="M16.0012 12.4C15.0464 12.4 14.1307 12.7793 13.4556 13.4544C12.7805 14.1295 12.4012 15.0452 12.4012 16C12.4012 16.9548 12.7805 17.8705 13.4556 18.5456C14.1307 19.2207 15.0464 19.6 16.0012 19.6C16.956 19.6 17.8717 19.2207 18.5468 18.5456C19.2219 17.8705 19.6012 16.9548 19.6012 16C19.6012 15.0452 19.2219 14.1295 18.5468 13.4544C17.8717 12.7793 16.956 12.4 16.0012 12.4ZM16.0012 10C17.5925 10 19.1186 10.6321 20.2438 11.7574C21.3691 12.8826 22.0012 14.4087 22.0012 16C22.0012 17.5913 21.3691 19.1174 20.2438 20.2426C19.1186 21.3679 17.5925 22 16.0012 22C14.4099 22 12.8838 21.3679 11.7586 20.2426C10.6333 19.1174 10.0012 17.5913 10.0012 16C10.0012 14.4087 10.6333 12.8826 11.7586 11.7574C12.8838 10.6321 14.4099 10 16.0012 10ZM23.8012 9.7C23.8012 10.0978 23.6432 10.4794 23.3619 10.7607C23.0806 11.042 22.699 11.2 22.3012 11.2C21.9034 11.2 21.5218 11.042 21.2405 10.7607C20.9592 10.4794 20.8012 10.0978 20.8012 9.7C20.8012 9.30218 20.9592 8.92064 21.2405 8.63934C21.5218 8.35804 21.9034 8.2 22.3012 8.2C22.699 8.2 23.0806 8.35804 23.3619 8.63934C23.6432 8.92064 23.8012 9.30218 23.8012 9.7ZM16.0012 6.4C13.0324 6.4 12.5476 6.4084 11.1664 6.4696C10.2256 6.514 9.5944 6.64 9.0088 6.868C8.51874 7.04793 8.0757 7.33631 7.7128 7.7116C7.33721 8.07448 7.04842 8.5175 6.868 9.0076C6.64 9.5956 6.514 10.2256 6.4708 11.1652C6.4084 12.49 6.4 12.9532 6.4 16C6.4 18.97 6.4084 19.4536 6.4696 20.8348C6.514 21.7744 6.64 22.4068 6.8668 22.9912C7.0708 23.5132 7.3108 23.8888 7.7092 24.2872C8.1136 24.6904 8.4892 24.9316 9.0052 25.1308C9.598 25.36 10.2292 25.4872 11.1652 25.5304C12.49 25.5928 12.9532 25.6 16 25.6C18.97 25.6 19.4536 25.5916 20.8348 25.5304C21.7732 25.486 22.4044 25.36 22.9912 25.1332C23.4808 24.9524 23.9237 24.6641 24.2872 24.2896C24.6916 23.8864 24.9328 23.5108 25.132 22.9936C25.36 22.4032 25.4872 21.772 25.5304 20.8336C25.5928 19.51 25.6 19.0456 25.6 16C25.6 13.0312 25.5916 12.5464 25.5304 11.1652C25.486 10.2268 25.3588 9.5932 25.132 9.0076C24.9511 8.51802 24.6629 8.07518 24.2884 7.7116C23.9257 7.33582 23.4826 7.047 22.9924 6.8668C22.4044 6.6388 21.7732 6.5128 20.8348 6.4696C19.5112 6.4072 19.048 6.4 16 6.4M16 4C19.2604 4 19.6672 4.012 20.9476 4.072C22.2244 4.132 23.0956 4.3324 23.86 4.63C24.652 4.9348 25.3192 5.3476 25.9864 6.0136C26.5966 6.61348 27.0687 7.33911 27.37 8.14C27.6664 8.9044 27.868 9.7756 27.928 11.0536C27.9844 12.3328 28 12.7396 28 16C28 19.2604 27.988 19.6672 27.928 20.9464C27.868 22.2244 27.6664 23.0944 27.37 23.86C27.0696 24.6613 26.5973 25.3871 25.9864 25.9864C25.3864 26.5964 24.6608 27.0685 23.86 27.37C23.0956 27.6664 22.2244 27.868 20.9476 27.928C19.6672 27.9844 19.2604 28 16 28C12.7396 28 12.3328 27.988 11.0524 27.928C9.7756 27.868 8.9056 27.6664 8.14 27.37C7.33879 27.0694 6.61303 26.5971 6.0136 25.9864C5.40332 25.3866 4.93115 24.6609 4.63 23.86C4.3324 23.0956 4.132 22.2244 4.072 20.9464C4.0144 19.6672 4 19.2604 4 16C4 12.7396 4.012 12.3328 4.072 11.0536C4.132 9.7756 4.3324 8.9056 4.63 8.14C4.93028 7.33862 5.40256 6.61279 6.0136 6.0136C6.61321 5.40308 7.33891 4.93088 8.14 4.63C8.9044 4.3324 9.7744 4.132 11.0524 4.072C12.334 4.0156 12.7408 4 16.0012 4" fill="white"/>
</svg>
