<svg width="32" height="32" viewBox="0 0 32 32" fill="none" xmlns="http://www.w3.org/2000/svg">
<rect width="32" height="32" rx="4" fill="#1A65A8"/>
<g clip-path="url(#clip0_189_124)">
<path d="M23.0408 6.7509C21.9948 5.5563 21.4182 4.02243 21.4184 2.43457H16.6888V21.4142C16.6531 22.4415 16.2197 23.4148 15.4801 24.1287C14.7404 24.8426 13.7524 25.2413 12.7245 25.2407C10.551 25.2407 8.7449 23.4652 8.7449 21.2611C8.7449 18.6284 11.2857 16.654 13.9031 17.4652V12.6284C8.62245 11.9244 4 16.0264 4 21.2611C4 26.358 8.22449 29.9856 12.7092 29.9856C17.5153 29.9856 21.4184 26.0825 21.4184 21.2611V11.6335C23.3362 13.0109 25.6388 13.7498 28 13.7458V9.0162C28 9.0162 25.1224 9.15396 23.0408 6.7509Z" fill="white"/>
</g>
<defs>
<clipPath id="clip0_189_124">
<rect width="24" height="24" fill="white" transform="translate(4 4.43457)"/>
</clipPath>
</defs>
</svg>
